<svg xmlns="http://www.w3.org/2000/svg">
    <symbol id="phone" viewBox="0 0 512 512">
        <path fill="currentColor" d="m493.4 24.6-104-24a24.16 24.16 0 0 0-27.5 13.9l-48 112c-4.2 9.8-1.4 21.3 6.9 28l60.6 49.6c-36 76.7-98.9 140.5-177.2 177.2l-49.6-60.6a23.97 23.97 0 0 0-28-6.9l-112 48a24.29 24.29 0 0 0-14 27.6l24 104A24 24 0 0 0 48 512c256.1 0 464-207.5 464-464 0-11.2-7.7-20.9-18.6-23.4z"/>
    </symbol>
    <symbol id="skills" viewBox="0 0 576 512">
        <path fill="currentColor" d="M510.62 92.63A47.63 47.63 0 0 0 528 96a48 48 0 1 0-48-48c0 2.43.37 4.76.71 7.09l-95.34 76.27c-5.4-2.11-11.23-3.37-17.38-3.37s-11.97 1.26-17.38 3.37L255.29 55.1c.35-2.33.71-4.67.71-7.1a48 48 0 1 0-96 0c0 4.27.74 8.34 1.78 12.28l-101.5 101.5A47.87 47.87 0 0 0 48 160a48 48 0 1 0 48 48c0-4.27-.74-8.34-1.78-12.28l101.5-101.5A47.87 47.87 0 0 0 208 96c6.15 0 11.97-1.26 17.38-3.37l95.34 76.27c-.35 2.33-.71 4.67-.71 7.1a48 48 0 1 0 96 0c0-2.43-.37-4.76-.71-7.09l95.32-76.28zM400 320h-64a16 16 0 0 0-16 16v160a16 16 0 0 0 16 16h64a16 16 0 0 0 16-16V336a16 16 0 0 0-16-16zm160-128h-64a16 16 0 0 0-16 16v288a16 16 0 0 0 16 16h64a16 16 0 0 0 16-16V208a16 16 0 0 0-16-16zm-320 0h-64a16 16 0 0 0-16 16v288a16 16 0 0 0 16 16h64a16 16 0 0 0 16-16V208a16 16 0 0 0-16-16zM80 352H16a16 16 0 0 0-16 16v128a16 16 0 0 0 16 16h64a16 16 0 0 0 16-16V368a16 16 0 0 0-16-16z"/>
    </symbol>
    <symbol id="globe" viewBox="0 0 496 512">
        <path fill="currentColor" d="M248 8C111.03 8 0 119.03 0 256s111.03 248 248 248 248-111.03 248-248S384.97 8 248 8zm82.29 357.6c-3.9 3.88-7.99 7.95-11.31 11.28-2.99 3-5.1 6.7-6.17 10.71-1.51 5.66-2.73 11.38-4.77 16.87l-17.39 46.85c-13.76 3-28 4.69-42.65 4.69v-27.38c1.69-12.62-7.64-36.26-22.63-51.25a32 32 0 0 1-9.37-22.63v-32.01a31.9 31.9 0 0 0-16.46-27.97c-14.37-7.95-34.81-19.06-48.81-26.11a144.16 144.16 0 0 1-31.65-21.75l-.8-.72a114.8 114.8 0 0 1-18.06-20.74 16569.5 16569.5 0 0 1-34.59-51.14 201.09 201.09 0 0 1 103.2-101.89l24.01 12.01A16 16 0 0 0 216 70.11v-11.3a199.85 199.85 0 0 1 24.39-2.42l28.3 28.3a16 16 0 0 1 0 22.63L264 112l-10.34 10.34a8 8 0 0 0 0 11.31l4.69 4.69a8 8 0 0 1 0 11.31l-8 8a8 8 0 0 1-5.66 2.34h-8.99a8 8 0 0 0-5.58 2.27l-9.92 9.65a8 8 0 0 0-1.58 9.31l15.59 31.19a8 8 0 0 1-7.15 11.58h-5.64a8 8 0 0 1-5.24-1.96l-9.28-8.06a16.02 16.02 0 0 0-15.55-3.1l-31.17 10.39a11.95 11.95 0 0 0-8.17 11.34c0 4.53 2.56 8.66 6.61 10.69l11.08 5.54c9.41 4.71 19.79 7.16 30.31 7.16s22.59 27.29 32 32h66.75c8.49 0 16.62 3.37 22.63 9.37l13.69 13.69a30.5 30.5 0 0 1 8.93 21.57 46.54 46.54 0 0 1-13.72 32.98zM417 274.25a24 24 0 0 1-14.15-9.97l-17.98-26.97a23.97 23.97 0 0 1 0-26.62l19.59-29.38a23.97 23.97 0 0 1 9.24-8.15l12.98-6.49A198.43 198.43 0 0 1 448 256c0 8.67-.74 17.16-1.82 25.54L417 274.25z"/>
    </symbol>
    <symbol id="heart" viewBox="0 0 512 512">
        <path fill="currentColor" d="M462.3 62.6C407.5 15.9 326 24.3 275.7 76.2L256 96.5l-19.7-20.3C186.1 24.3 104.5 15.9 49.7 62.6c-62.8 53.6-66.1 149.8-9.9 207.9l193.5 199.8a31.35 31.35 0 0 0 45.3 0l193.5-199.8c56.3-58.1 53-154.3-9.8-207.9z"/>
    </symbol>
    <symbol id="envelope" viewBox="0 0 512 512">
        <path fill="currentColor" d="M502.3 190.8c3.9-3.1 9.7-.2 9.7 4.7V400c0 26.5-21.5 48-48 48H48c-26.5 0-48-21.5-48-48V195.6c0-5 5.7-7.8 9.7-4.7 22.4 17.4 52.1 39.5 154.1 113.6 21.1 15.4 56.7 47.8 92.2 47.6 35.7.3 72-32.8 92.3-47.6 102-74.1 131.6-96.3 154-113.7zM256 320c23.2.4 56.6-29.2 73.4-41.4 132.7-96.3 142.8-104.7 173.4-128.7 5.8-4.5 9.2-11.5 9.2-18.9v-19c0-26.5-21.5-48-48-48H48C21.5 64 0 85.5 0 112v19c0 7.4 3.4 14.3 9.2 18.9 30.6 23.9 40.7 32.4 173.4 128.7 16.8 12.2 50.2 41.8 73.4 41.4z"/>
    </symbol>
    <symbol id="skype"  viewBox="0 0 448 512">
        <path fill="currentColor" d="M424.7 299.8c2.9-14 4.7-28.9 4.7-43.8 0-113.5-91.9-205.3-205.3-205.3-14.9 0-29.7 1.7-43.8 4.7C161.3 40.7 137.7 32 112 32 50.2 32 0 82.2 0 144c0 25.7 8.7 49.3 23.3 68.2-2.9 14-4.7 28.9-4.7 43.8 0 113.5 91.9 205.3 205.3 205.3 14.9 0 29.7-1.7 43.8-4.7 19 14.6 42.6 23.3 68.2 23.3 61.8 0 112-50.2 112-112 .1-25.6-8.6-49.2-23.2-68.1zm-194.6 91.5c-65.6 0-120.5-29.2-120.5-65 0-16 9-30.6 29.5-30.6 31.2 0 34.1 44.9 88.1 44.9 25.7 0 42.3-11.4 42.3-26.3 0-18.7-16-21.6-42-28-62.5-15.4-117.8-22-117.8-87.2 0-59.2 58.6-81.1 109.1-81.1 55.1 0 110.8 21.9 110.8 55.4 0 16.9-11.4 31.8-30.3 31.8-28.3 0-29.2-33.5-75-33.5-25.7 0-42 7-42 22.5 0 19.8 20.8 21.8 69.1 33 41.4 9.3 90.7 26.8 90.7 77.6 0 59.1-57.1 86.5-112 86.5z"/>
    </symbol>
    <symbol id="github" viewBox="0 0 496 512">
        <path fill="currentColor" d="M165.9 397.4c0 2-2.3 3.6-5.2 3.6-3.3.3-5.6-1.3-5.6-3.6 0-2 2.3-3.6 5.2-3.6 3-.3 5.6 1.3 5.6 3.6zm-31.1-4.5c-.7 2 1.3 4.3 4.3 4.9 2.6 1 5.6 0 6.2-2s-1.3-4.3-4.3-5.2c-2.6-.7-5.5.3-6.2 2.3zm44.2-1.7c-2.9.7-4.9 2.6-4.6 4.9.3 2 2.9 3.3 5.9 2.6 2.9-.7 4.9-2.6 4.6-4.6-.3-1.9-3-3.2-5.9-2.9zM244.8 8C106.1 8 0 113.3 0 252c0 110.9 69.8 205.8 169.5 239.2 12.8 2.3 17.3-5.6 17.3-12.1 0-6.2-.3-40.4-.3-61.4 0 0-70 15-84.7-29.8 0 0-11.4-29.1-27.8-36.6 0 0-22.9-15.7 1.6-15.4 0 0 24.9 2 38.6 25.8 21.9 38.6 58.6 27.5 72.9 20.9 2.3-16 8.8-27.1 16-33.7-55.9-6.2-112.3-14.3-112.3-110.5 0-27.5 7.6-41.3 23.6-58.9-2.6-6.5-11.1-33.3 2.6-67.9 20.9-6.5 69 27 69 27 20-5.6 41.5-8.5 62.8-8.5s42.8 2.9 62.8 8.5c0 0 48.1-33.6 69-27 13.7 34.7 5.2 61.4 2.6 67.9 16 17.7 25.8 31.5 25.8 58.9 0 96.5-58.9 104.2-114.8 110.5 9.2 7.9 17 22.9 17 46.4 0 33.7-.3 75.4-.3 83.6 0 6.5 4.6 14.4 17.3 12.1C428.2 457.8 496 362.9 496 252 496 113.3 383.5 8 244.8 8zM97.2 352.9c-1.3 1-1 3.3.7 5.2 1.6 1.6 3.9 2.3 5.2 1 1.3-1 1-3.3-.7-5.2-1.6-1.6-3.9-2.3-5.2-1zm-10.8-8.1c-.7 1.3.3 2.9 2.3 3.9 1.6 1 3.6.7 4.3-.7.7-1.3-.3-2.9-2.3-3.9-2-.6-3.6-.3-4.3.7zm32.4 35.6c-1.6 1.3-1 4.3 1.3 6.2 2.3 2.3 5.2 2.6 6.5 1 1.3-1.3.7-4.3-1.3-6.2-2.2-2.3-5.2-2.6-6.5-1zm-11.4-14.7c-1.6 1-1.6 3.6 0 5.9 1.6 2.3 4.3 3.3 5.6 2.3 1.6-1.3 1.6-3.9 0-6.2-1.4-2.3-4-3.3-5.6-2z"/>
    </symbol>
    <symbol id="discord" viewBox="0 0 640 512">
        <path fill="currentColor" d="M524.53 69.84a1.5 1.5 0 0 0-.76-.7 485.06 485.06 0 0 0-119.69-37.11 1.82 1.82 0 0 0-1.92.91 337.46 337.46 0 0 0-14.9 30.6 447.85 447.85 0 0 0-134.43 0 309.54 309.54 0 0 0-15.13-30.6 1.89 1.89 0 0 0-1.93-.91 483.69 483.69 0 0 0-119.69 37.1 1.71 1.71 0 0 0-.78.68C39.07 183.65 18.19 294.7 28.43 404.35a2.02 2.02 0 0 0 .77 1.38 487.67 487.67 0 0 0 146.82 74.19 1.9 1.9 0 0 0 2.06-.68 348.2 348.2 0 0 0 30.04-48.84 1.86 1.86 0 0 0-1.02-2.59 321.17 321.17 0 0 1-45.87-21.85 1.89 1.89 0 0 1-.18-3.13c3.08-2.3 6.16-4.7 9.1-7.13a1.82 1.82 0 0 1 1.9-.26c96.24 43.92 200.42 43.92 295.5 0a1.81 1.81 0 0 1 1.93.23c2.94 2.43 6.03 4.85 9.13 7.16a1.88 1.88 0 0 1-.16 3.13 301.4 301.4 0 0 1-45.89 21.83 1.88 1.88 0 0 0-1 2.61 391.06 391.06 0 0 0 30.02 48.81 1.86 1.86 0 0 0 2.06.7 486.05 486.05 0 0 0 147.06-74.18 1.88 1.88 0 0 0 .77-1.35c12.26-126.79-20.54-236.91-86.94-334.54ZM222.5 337.58c-28.97 0-52.84-26.59-52.84-59.24s23.4-59.24 52.84-59.24c29.67 0 53.3 26.82 52.84 59.24 0 32.65-23.4 59.24-52.84 59.24Zm195.38 0c-28.97 0-52.84-26.59-52.84-59.24s23.4-59.24 52.84-59.24c29.67 0 53.3 26.82 52.84 59.24 0 32.65-23.17 59.24-52.84 59.24Z"/>
    </symbol>


    <symbol id="html5" viewBox="0 0 384 512">
        <path fill="currentColor" d="m0 32 34.9 395.8L191.5 480l157.6-52.2L384 32H0zm308.2 127.9H124.4l4.1 49.4h175.6l-13.6 148.4-97.9 27v.3h-1.1l-98.7-27.3-6-75.8h47.7L138 320l53.5 14.5 53.7-14.5 6-62.2H84.3L71.5 112.2h241.1l-4.4 47.7z"/>
    </symbol>
    <symbol id="css3" viewBox="0 0 512 512">
        <path fill="currentColor" d="m480 32-64 368-223.3 80L0 400l19.6-94.8h82l-8 40.6L210 390.2l134.1-44.4 18.8-97.1H29.5l16-82h333.7l10.5-52.7H56.3l16.3-82H480z"/>
    </symbol>

    <symbol id="less" viewBox="0 0 640 512">
        <path fill="currentColor" d="M612.7 219c0-20.5 3.2-32.6 3.2-54.6 0-34.2-12.6-45.2-40.5-45.2h-20.5v24.2h6.3c14.2 0 17.3 4.7 17.3 22.1 0 16.3-1.6 32.6-1.6 51.5 0 24.2 7.9 33.6 23.6 37.3v1.6c-15.8 3.7-23.6 13.1-23.6 37.3 0 18.9 1.6 34.2 1.6 51.5 0 17.9-3.7 22.6-17.3 22.6v.5h-6.3V393h20.5c27.8 0 40.5-11 40.5-45.2 0-22.6-3.2-34.2-3.2-54.6 0-11 6.8-22.6 27.3-23.6v-27.3c-20.5-.7-27.3-12.3-27.3-23.3zm-105.6 32c-15.8-6.3-30.5-10-30.5-20.5 0-7.9 6.3-12.6 17.9-12.6s22.1 4.7 33.6 13.1l21-27.8c-13.1-10-31-20.5-55.2-20.5-35.7 0-59.9 20.5-59.9 49.4 0 25.7 22.6 38.9 41.5 46.2 16.3 6.3 32.1 11.6 32.1 22.1 0 7.9-6.3 13.1-20.5 13.1-13.1 0-26.3-5.3-40.5-16.3l-21 30.5c15.8 13.1 39.9 22.1 59.9 22.1 42 0 64.6-22.1 64.6-51s-22.5-41-43-47.8zm-358.9 59.4c-3.7 0-8.4-3.2-8.4-13.1V119.1H65.2c-28.4 0-41 11-41 45.2 0 22.6 3.2 35.2 3.2 54.6 0 11-6.8 22.6-27.3 23.6v27.3c20.5.5 27.3 12.1 27.3 23.1 0 19.4-3.2 31-3.2 53.6 0 34.2 12.6 45.2 40.5 45.2h20.5v-24.2h-6.3c-13.1 0-17.3-5.3-17.3-22.6s1.6-32.1 1.6-51.5c0-24.2-7.9-33.6-23.6-37.3v-1.6c15.8-3.7 23.6-13.1 23.6-37.3 0-18.9-1.6-34.2-1.6-51.5s3.7-22.1 17.3-22.1H93v150.8c0 32.1 11 53.1 43.1 53.1 10 0 17.9-1.6 23.6-3.7l-5.3-34.2c-3.1.8-4.6.8-6.2.8zM379.9 251c-16.3-6.3-31-10-31-20.5 0-7.9 6.3-12.6 17.9-12.6 11.6 0 22.1 4.7 33.6 13.1l21-27.8c-13.1-10-31-20.5-55.2-20.5-35.7 0-59.9 20.5-59.9 49.4 0 25.7 22.6 38.9 41.5 46.2 16.3 6.3 32.1 11.6 32.1 22.1 0 7.9-6.3 13.1-20.5 13.1-13.1 0-26.3-5.3-40.5-16.3l-20.5 30.5c15.8 13.1 39.9 22.1 59.9 22.1 42 0 64.6-22.1 64.6-51 .1-28.9-22.5-41-43-47.8zm-155-68.8c-38.4 0-75.1 32.1-74.1 82.5 0 52 34.2 82.5 79.3 82.5 18.9 0 39.9-6.8 56.2-17.9l-15.8-27.8c-11.6 6.8-22.6 10-34.2 10-21 0-37.3-10-41.5-34.2H290c.5-3.7 1.6-11 1.6-19.4.6-42.6-22.6-75.7-66.7-75.7zm-30 66.2c3.2-21 15.8-31 30.5-31 18.9 0 26.3 13.1 26.3 31h-56.8z"/>
    </symbol>
    <symbol id="sass" viewBox="0 0 640 512">
        <path fill="currentColor" d="M301.84 378.92c-.3.6-.6 1.08 0 0zm249.13-87a131.16 131.16 0 0 0-58 13.5c-5.9-11.9-12-22.3-13-30.1-1.2-9.1-2.5-14.5-1.1-25.3s7.7-26.1 7.6-27.2-1.4-6.6-14.3-6.7-24 2.5-25.29 5.9a122.83 122.83 0 0 0-5.3 19.1c-2.3 11.7-25.79 53.5-39.09 75.3-4.4-8.5-8.1-16-8.9-22-1.2-9.1-2.5-14.5-1.1-25.3s7.7-26.1 7.6-27.2-1.4-6.6-14.29-6.7-24 2.5-25.3 5.9-2.7 11.4-5.3 19.1-33.89 77.3-42.08 95.4c-4.2 9.2-7.8 16.6-10.4 21.6-.4.8-.7 1.3-.9 1.7.3-.5.5-1 .5-.8-2.2 4.3-3.5 6.7-3.5 6.7v.1c-1.7 3.2-3.6 6.1-4.5 6.1-.6 0-1.9-8.4.3-19.9 4.7-24.2 15.8-61.8 15.7-63.1-.1-.7 2.1-7.2-7.3-10.7-9.1-3.3-12.4 2.2-13.2 2.2s-1.4 2-1.4 2 10.1-42.4-19.39-42.4c-18.4 0-44 20.2-56.58 38.5-7.9 4.3-25 13.6-43 23.5l-20.7 11.4c-.5-.5-.9-1-1.4-1.5-35.79-38.2-101.87-65.2-99.07-116.5 1-18.7 7.5-67.8 127.07-127.4 98-48.8 176.35-35.4 189.84-5.6 19.4 42.5-41.89 121.6-143.66 133-38.79 4.3-59.18-10.7-64.28-16.3-5.3-5.9-6.1-6.2-8.1-5.1-3.3 1.8-1.2 7 0 10.1 3 7.9 15.5 21.9 36.79 28.9 18.7 6.1 64.18 9.5 119.17-11.8 61.78-23.8 109.87-90.1 95.77-145.6C386.52 18.32 293-.18 204.57 31.22c-52.69 18.7-109.67 48.1-150.66 86.4-48.69 45.6-56.48 85.3-53.28 101.9 11.39 58.9 92.57 97.3 125.06 125.7-1.6.9-3.1 1.7-4.5 2.5-16.29 8.1-78.18 40.5-93.67 74.7-17.5 38.8 2.9 66.6 16.29 70.4 41.79 11.6 84.58-9.3 107.57-43.6s20.2-79.1 9.6-99.5c-.1-.3-.3-.5-.4-.8 4.2-2.5 8.5-5 12.8-7.5 8.29-4.9 16.39-9.4 23.49-13.3-4 10.8-6.9 23.8-8.4 42.6-1.8 22 7.3 50.5 19.1 61.7 5.2 4.9 11.49 5 15.39 5 13.8 0 20-11.4 26.89-25 8.5-16.6 16-35.9 16-35.9s-9.4 52.2 16.3 52.2c9.39 0 18.79-12.1 23-18.3v.1s.2-.4.7-1.2c1-1.5 1.5-2.4 1.5-2.4v-.3c3.8-6.5 12.1-21.4 24.59-46 16.2-31.8 31.69-71.5 31.69-71.5a201.24 201.24 0 0 0 6.2 25.8c2.8 9.5 8.7 19.9 13.4 30-3.8 5.2-6.1 8.2-6.1 8.2a.31.31 0 0 0 .1.2c-3 4-6.4 8.3-9.9 12.5-12.79 15.2-28 32.6-30 37.6-2.4 5.9-1.8 10.3 2.8 13.7 3.4 2.6 9.4 3 15.69 2.5 11.5-.8 19.6-3.6 23.5-5.4a82.2 82.2 0 0 0 20.19-10.6c12.5-9.2 20.1-22.4 19.4-39.8-.4-9.6-3.5-19.2-7.3-28.2 1.1-1.6 2.3-3.3 3.4-5C434.8 301.72 450.1 270 450.1 270a201.24 201.24 0 0 0 6.2 25.8c2.4 8.1 7.09 17 11.39 25.7-18.59 15.1-30.09 32.6-34.09 44.1-7.4 21.3-1.6 30.9 9.3 33.1 4.9 1 11.9-1.3 17.1-3.5a79.46 79.46 0 0 0 21.59-11.1c12.5-9.2 24.59-22.1 23.79-39.6-.3-7.9-2.5-15.8-5.4-23.4 15.7-6.6 36.09-10.2 62.09-7.2 55.68 6.5 66.58 41.3 64.48 55.8s-13.8 22.6-17.7 25-5.1 3.3-4.8 5.1c.5 2.6 2.3 2.5 5.6 1.9 4.6-.8 29.19-11.8 30.29-38.7 1.6-34-31.09-71.4-89-71.1zm-429.18 144.7c-18.39 20.1-44.19 27.7-55.28 21.3C54.61 451 59.31 421.42 82 400c13.8-13 31.59-25 43.39-32.4 2.7-1.6 6.6-4 11.4-6.9.8-.5 1.2-.7 1.2-.7.9-.6 1.9-1.1 2.9-1.7 8.29 30.4.3 57.2-19.1 78.3zm134.36-91.4c-6.4 15.7-19.89 55.7-28.09 53.6-7-1.8-11.3-32.3-1.4-62.3 5-15.1 15.6-33.1 21.9-40.1 10.09-11.3 21.19-14.9 23.79-10.4 3.5 5.9-12.2 49.4-16.2 59.2zm111 53c-2.7 1.4-5.2 2.3-6.4 1.6-.9-.5 1.1-2.4 1.1-2.4s13.9-14.9 19.4-21.7c3.2-4 6.9-8.7 10.89-13.9 0 .5.1 1 .1 1.6-.13 17.9-17.32 30-25.12 34.8zm85.58-19.5c-2-1.4-1.7-6.1 5-20.7 2.6-5.7 8.59-15.3 19-24.5a36.18 36.18 0 0 1 1.9 10.8c-.1 22.5-16.2 30.9-25.89 34.4z"/>
    </symbol>

    <symbol id="photoshop" viewBox="0 0 240 234">
        <path fill="currentColor" d="M42.5 0h155C221 0 240 19 240 42.5v149c0 23.5-19 42.5-42.5 42.5h-155C19 234 0 215 0 191.5v-149C0 19 19 0 42.5 0z"/>
        <path fill="#fff" d="M54 164.1V61.2c0-.7.3-1.1 1-1.1 1.7 0 3.3 0 5.6-.1 2.4-.1 4.9-.1 7.6-.2 2.7-.1 5.6-.1 8.7-.2 3.1-.1 6.1-.1 9.1-.1 8.2 0 15 1 20.6 3.1 5 1.7 9.6 4.5 13.4 8.2 3.2 3.2 5.7 7.1 7.3 11.4 1.5 4.2 2.3 8.5 2.3 13 0 8.6-2 15.7-6 21.3-4 5.6-9.6 9.8-16.1 12.2-6.8 2.5-14.3 3.4-22.5 3.4-2.4 0-4 0-5-.1s-2.4-.1-4.3-.1V164c.1.7-.4 1.3-1.1 1.4H55.2c-.8 0-1.2-.4-1.2-1.3zm21.8-84.7V113c1.4.1 2.7.2 3.9.2H85c3.9 0 7.8-.6 11.5-1.8 3.2-.9 6-2.8 8.2-5.3 2.1-2.5 3.1-5.9 3.1-10.3.1-3.1-.7-6.2-2.3-8.9a14.5 14.5 0 0 0-7-5.7c-3.7-1.5-7.7-2.1-11.8-2-2.6 0-4.9 0-6.8.1-2-.1-3.4 0-4.1.1zM192 106.9c-3-1.6-6.2-2.7-9.6-3.4-3.7-.8-7.4-1.3-11.2-1.3-2-.1-4.1.2-6 .7-1.3.3-2.4 1-3.1 2-.5.8-.8 1.8-.8 2.7 0 .9.4 1.8 1 2.6.9 1.1 2.1 2 3.4 2.7 2.3 1.2 4.7 2.3 7.1 3.3 5.4 1.8 10.6 4.3 15.4 7.3 3.3 2.1 6 4.9 7.9 8.3 1.6 3.2 2.4 6.7 2.3 10.3.1 4.7-1.3 9.4-3.9 13.3-2.8 4-6.7 7.1-11.2 8.9-4.9 2.1-10.9 3.2-18.1 3.2-4.6 0-9.1-.4-13.6-1.3-3.5-.6-7-1.7-10.2-3.2-.7-.4-1.2-1.1-1.1-1.9v-17.4c0-.3.1-.7.4-.9.3-.2.6-.1.9.1 3.9 2.3 8 3.9 12.4 4.9 3.8 1 7.8 1.5 11.8 1.5 3.8 0 6.5-.5 8.3-1.4 1.6-.7 2.7-2.4 2.7-4.2 0-1.4-.8-2.7-2.4-4-1.6-1.3-4.9-2.8-9.8-4.7-5.1-1.8-9.8-4.2-14.2-7.2a25.9 25.9 0 0 1-7.6-8.5c-1.6-3.2-2.4-6.7-2.3-10.2 0-4.3 1.2-8.4 3.4-12.1 2.5-4 6.2-7.2 10.5-9.2 4.7-2.4 10.6-3.5 17.7-3.5 4.1 0 8.3.3 12.4.9 3 .4 5.9 1.2 8.6 2.3.4.1.8.5 1 .9.1.4.2.8.2 1.2v16.3c0 .4-.2.8-.5 1-.9.2-1.4.2-1.8 0z"/>
    </symbol>
    <symbol id="sketch" viewBox="0 0 512 512">
        <path fill="currentColor" d="M47.8 170.6 31 193.3h82.4l6.3-119-71.9 96.3zM383.6 64.5 266.5 52.1l123.5 134-6.4-121.6zM125 221.7l-10.2-20h-83l204.7 238.2L125 221.7zm1.8-28.4h258.5l-74.2-80.6-55-59.7-129.3 140.3zm270.6 8.3L275.5 439.9l204.7-238.2-82.8-.1zM401 85.8l-8.6-11.5.8 15.7 5.6 103.2H481L401 85.8zm-274.9 22.3-4.2 77.9L245.6 52.1 128.5 64.5l-2.4 43.6zm262 93.5H124l38.6 75.5L256.1 460l132-258.4z"/>
    </symbol>
    <symbol id="gimp" viewBox="0 0 25000 18552">
        <path fill="currentColor" d="m20295.09 656.13-.09.11-499.88 333.25-1266.4 1732.9-2666 1932.9-2366.1 533.21 466.56 766.49 399.9 1732.9-766.48 1399.7s-933.11 733.16-1099.7 833.14c-166.63 99.98-1799.6-99.98-1999.5-199.95-199.9-99.97-933.11-1066.4-933.11-1066.4l-366.58-1666.3 633.18-1399.7-466.56-266.6-633.18-99.98-166.63 366.58 566.53 733.16-66.65 566.53v1366.3l-933.11 933.11-1366.3 99.98-1066.4-433.23-66.65 166.63 166.63 1399.7-533.21 1299.7-799.81 533.21 1133.1 1066.4 2466.1 966.44 2366.1 666.51 2899.3 199.95 3199.2-733.16 149.96-133.3-2649.4-1782.9 949.78-949.78s1483 299.93 3182.6 1099.7 2399.4-8464.7 2399.4-8464.7l-266.6-3532.5zM5420 2810.84l-.06.02.06.05v-.07zm0 .07-23.56 2874.83 1060.4-683.37 1131.1-117.82-801.2-942.59L5420 2810.91zm8688.12 7506.04c775.3 235.6 1818.39 665.99 1968.3 1452.4-224.05-142.86-644.97-338.2-1199.6-262.08-726.29 99.66-851.2 817.51-871.94 1014.9-970.9 443.03-3498.7 110.4-5054.6-403.28 3446.2 147.6 4217.4 24.6 5885.1-1024.9L14108 10317l.12-.05z"/>
        <path fill="currentColor" d="M11694 4497.6A2843.4 2843.4 0 0 0 8850.6 7341a2843.4 2843.4 0 0 0 2843.4 2843.4A2843.4 2843.4 0 0 0 14537.4 7341 2843.4 2843.4 0 0 0 11694 4497.6zm0 529.02a2314.4 2314.4 0 0 1 2314.4 2314.4 2314.4 2314.4 0 0 1-2314.4 2314.4 2314.4 2314.4 0 0 1-2314.4-2314.4 2314.4 2314.4 0 0 1 2314.4-2314.4z"/>
        <path fill="currentColor" d="M7098.4 4662.9a2479.7 2479.7 0 0 0-2479.7 2479.7 2479.7 2479.7 0 0 0 2479.7 2479.7 2479.7 2479.7 0 0 0 2030.9-1062 2843.4 2843.4 0 0 1-225.9-680.78 1950.7 1950.7 0 0 1-1805 1213.8 1950.7 1950.7 0 0 1-1950.7-1950.7 1950.7 1950.7 0 0 1 1950.7-1950.7 1950.7 1950.7 0 0 1 1861.1 1373 2843.4 2843.4 0 0 1 284.83-660.53 2479.7 2479.7 0 0 0-2145.9-1241.5z"/>
        <path fill="currentColor" d="M7610.9 6150.8a1330.8 1330.8 0 0 0-553.68 122.4 743.91 743.91 0 0 1 181.75-23.22 743.91 743.91 0 0 1 743.9 743.9 743.91 743.91 0 0 1-743.9 743.9 743.91 743.91 0 0 1-743.95-743.9 743.91 743.91 0 0 1 101.04-372.86 1330.8 1330.8 0 0 0-315.92 860.54 1330.8 1330.8 0 0 0 1330.8 1330.8 1330.8 1330.8 0 0 0 1330.8-1330.8 1330.8 1330.8 0 0 0-1330.8-1330.8zM12273 6233.4a1520.9 1520.9 0 0 0-685.99 163.7 867.9 867.9 0 0 1 231.36-31.48 867.9 867.9 0 0 1 867.91 867.91 867.9 867.9 0 0 1-867.91 867.91 867.9 867.9 0 0 1-867.91-867.9 867.9 867.9 0 0 1 70.7-342.5 1520.9 1520.9 0 0 0-269.06 863.25A1520.9 1520.9 0 0 0 12273 9275.2a1520.9 1520.9 0 0 0 1520.9-1520.9A1520.9 1520.9 0 0 0 12273 6233.4zM2100.6 6033.5a3615.5 2625.8 50.92 0 0-557.88 71.51 3615.5 2625.8 50.92 0 0-1141 3866.4 3615.5 2625.8 50.92 0 0 4171.1 2507 3615.5 2625.8 50.92 0 0 1141-3866.4 3615.5 2625.8 50.92 0 0-99.3-189.97 1963.8 1963.8 0 0 1-324.79-525.93 3615.5 2625.8 50.92 0 0-3189.1-1862.6zm155.4 528.98a3028.5 2199.5 50.92 0 1 3026.6 2159.9 3028.5 2199.5 50.92 0 1-955.78 3238.7 3028.5 2199.5 50.92 0 1-3493.9-2100 3028.5 2199.5 50.92 0 1 955.78-3238.7 3028.5 2199.5 50.92 0 1 467.3-59.9z"/>
        <path fill="currentColor" d="M19966 .08c-6.17-.17-12.36-.07-18.6.3-156.26 9.1-335.84 189.29-529.24 675.27-1073.8 2698.3-4133.2 4051.6-7071.9 4407.5a2337.88 2337.88 0 0 1 883.3 473.6c2491.2-454.56 5301-1692.1 6742.3-4375.5 197.15-367.08 187.04 1566.4 187.04 1566.4s607.82 6686.4-2057.4 9865.9c-447.82 534.25-1098.8 1042.9-1874.5 1493-5756.6 2493.8-11270-1731.9-11270-1731.9l-36.26-23.12c-110.36 52.08-226.53 94.48-347.7 126.89a2253.27 2253.27 0 0 1-226.06 43.63c17.88 12.93 32.7 23.76 50.8 36.82 4.9 5.8 9.9 11.26 15.03 16.4 150.93 87.13 656.84 447.77 656.84 447.77 3512.4 2319.3 7533.2 2860.3 11055 1724 1468-473.61 2734.7-1959.4 3293.4-3250.7 1896.1-4576.8 1111.5-10461 1111.5-10461 63.08 35.55-175.3-1024.2-563.68-1035.2zM5197 1329.48l-163.45 4544.1C5134.42 5563.32 5577.4 5225 5577.4 5225l33.05-1950.7s1438.3 2000.3 3835.3 2397.1c167.85 27.78 353.03 50.52 552.07 67.7a2337.97 2337.97 0 0 1 796.18-558.68c-291.62 1.1-578.03-7.6-856.77-26.01-3465.3-228.84-4740.2-3824.9-4740.2-3824.9z"/>
        <path stroke="currentColor" stroke-width="21.69" d="M14057 12497s3740.6 2454.8 4932.9 2758.7c211.19 53.83 841.64-1636.5 841.64-1636.5s-2030.6-1258-4675.8-2010.6c-602.88-171.53-1022.9 593.79-1098.8 888.4z"/>
        <path fill="currentColor" d="M20042 13474c-376.64 201.34-1578.1 970.14-925.74 2066.4l224.33-85.96c4.75-60.47 87.44-971 808.43-1706.9zm148.79 380.24s-564.3 451.23-757.42 1564.7c1514.5 574.32 1893.7 724.71 1893.7 724.71 116.9 724.75 631.22 1192.4 1215.7 1356 2032 614.4 2388.5 908.37 2446.2 1009.5-985.68-4998.4-3112-3580.4-3112-3580.4zm4798.2 4654.9c2.83 14.36 5.79 28.07 8.6 42.53 0 0 8.12-13.25-8.6-42.53z"/>
    </symbol>

    <svg id="git" viewBox="0 0 512 512">
        <path fill="currentColor" d="M216.29 158.39H137C97 147.9 6.51 150.63 6.51 233.18c0 30.09 15 51.23 35 61-25.1 23-37 33.85-37 49.21 0 11 4.47 21.14 17.89 26.81C8.13 383.61 0 393.35 0 411.65c0 32.11 28.05 50.82 101.63 50.82 70.75 0 111.79-26.42 111.79-73.18 0-58.66-45.16-56.5-151.63-63l13.43-21.55c27.27 7.58 118.7 10 118.7-67.89 0-18.7-7.73-31.71-15-41.07l37.41-2.84zm-63.42 241.9c0 32.06-104.89 32.1-104.89 2.43 0-8.14 5.27-15 10.57-21.54 77.71 5.3 94.32 3.37 94.32 19.11zm-50.81-134.58c-52.8 0-50.46-71.16 1.2-71.16 49.54 0 50.82 71.16-1.2 71.16zm133.3 100.51v-32.1c26.75-3.66 27.24-2 27.24-11V203.61c0-8.5-2.05-7.38-27.24-16.26l4.47-32.92H324v168.71c0 6.51.4 7.32 6.51 8.14l20.73 2.84v32.1zm52.45-244.31c-23.17 0-36.59-13.43-36.59-36.61s13.42-35.77 36.59-35.77c23.58 0 37 12.62 37 35.77s-13.42 36.61-37 36.61zM512 350.46c-17.49 8.53-43.1 16.26-66.28 16.26-48.38 0-66.67-19.5-66.67-65.46V194.75c0-5.42 1.05-4.06-31.71-4.06V154.5c35.78-4.07 50-22 54.47-66.27h38.63c0 65.83-1.34 61.81 3.26 61.81H501v40.65h-60.56v97.15c0 6.92-4.92 51.41 60.57 26.84z"/>
    </svg>
    <svg id="gitlab" viewBox="0 0 512 512">
        <path fill="currentColor" d="M105.2 24.9c-3.1-8.9-15.7-8.9-18.9 0L29.8 199.7h132c-.1 0-56.6-174.8-56.6-174.8zM.9 287.7c-2.6 8 .3 16.9 7.1 22l247.9 184-226.2-294zm160.8-88 94.3 294 94.3-294zm349.4 88-28.8-88-226.3 294 247.9-184a20 20 0 0 0 7.2-22zM425.7 24.9c-3.1-8.9-15.7-8.9-18.9 0l-56.6 174.8h132z"/>
    </svg>

    <symbol id="vscode" viewBox="0 0 100 100">
        <g fill="currentColor">
            <path d="M96.46 10.8 75.86.88a6.23 6.23 0 0 0-7.11 1.2L1.3 63.58a4.17 4.17 0 0 0 0 6.17l5.51 5a4.17 4.17 0 0 0 5.32.24l81.23-61.62a4.14 4.14 0 0 1 6.64 3.3v-.24c0-2.4-1.38-4.6-3.54-5.63Z"/>
            <path d="m96.46 89.2-20.6 9.92a6.23 6.23 0 0 1-7.11-1.2L1.3 36.42a4.17 4.17 0 0 1 0-6.17l5.51-5a4.17 4.17 0 0 1 5.32-.24l81.23 61.62a4.14 4.14 0 0 0 6.64-3.3v.24c0 2.4-1.38 4.6-3.54 5.63Z"/>
            <path d="M75.86 99.13a6.23 6.23 0 0 1-7.11-1.21c2.3 2.3 6.25.67 6.25-2.6V4.68c0-3.26-3.94-4.9-6.25-2.59a6.23 6.23 0 0 1 7.1-1.2l20.6 9.9a6.25 6.25 0 0 1 3.55 5.63V83.6c0 2.4-1.38 4.59-3.54 5.63l-20.6 9.9Z"/>
            <path fill-rule="evenodd" d="M70.85 99.32c1.58.61 3.37.57 4.96-.2l20.59-9.9a6.25 6.25 0 0 0 3.54-5.63V16.4c0-2.4-1.38-4.59-3.54-5.63L75.81.88a6.23 6.23 0 0 0-7.1 1.2L29.29 38.04 12.13 25.01a4.16 4.16 0 0 0-5.32.24l-5.5 5a4.17 4.17 0 0 0-.01 6.17L16.19 50 1.29 63.58a4.17 4.17 0 0 0 .01 6.17l5.5 5a4.16 4.16 0 0 0 5.33.24l17.16-13.03 39.42 35.96c.62.62 1.35 1.09 2.14 1.4Zm4.1-72.02L45.05 50l29.9 22.7V27.3Z" clip-rule="evenodd"/>
        </g>
    </symbol>
    <symbol id="phpstorm" viewBox="0 0 400 400">
        <path fill="currentColor" d="M86.4 47.7a2000.76 2000.76 0 0 0-24.5 27.8c-1.5 1.6-7.4 8.4-13.3 15-8.7 9.9-10.5 12.4-10.1 14.5.3 1.4 7 41.9 15 90s14.8 88.7 15.1 90.3l.6 2.7H100v12h27.8l1.8 12c.9 6.6 2.1 12.4 2.4 13.1.8 1.1 107.9 39 108.9 38.5s120.6-71.8 120.8-72c.2-.2-8.3-16.6-18.7-36.7-10.4-20-19-36.7-19-37.2 0-.4 6.8-7.8 15.2-16.5 8.4-8.6 16.9-17.5 19-19.7l3.8-4-13.4-31.5c-7.3-17.3-16.6-40.3-20.6-51-4.1-10.7-7.6-19.8-7.9-20.2-.3-.4-18.9-4.1-41.3-8.3l-40.7-7.7-3.4 2.9c-1.9 1.5-7.7 6.7-12.9 11.5-5.3 4.9-9.8 8.8-10.1 8.8-.4 0-1.8-3.9-3.3-8.8-1.4-4.8-2.7-8.8-2.8-8.9 0 0-24.4-5.3-54.1-11.8-29.7-6.4-54.9-11.8-56.1-12.1-1.6-.4-3.6 1.2-9 7.3zM236.1 127c7.9 2.4 16.3 7.5 15.3 9.3-3 5-8.7 12.8-9.2 12.5-.4-.2-3.8-1.8-7.5-3.7-5.5-2.8-8-3.4-13.2-3.5-5.4-.1-6.7.3-8.9 2.3-4.2 4-3.3 8.2 2.3 11 2 1 7.8 3 12.9 4.5 17.3 4.9 24 10 26.2 19.8 2.7 11.9-2.4 22.4-13.2 27.7-14 6.8-33.5 4.4-48-6.1l-4.8-3.4 5.6-6.6 5.6-6.7 4 2.9c14.5 10.5 35.2 8.8 32.4-2.6-.9-3.4-3.7-4.9-16.1-8.5-16.7-4.8-23.7-9.1-26.4-16.2-1.8-4.6-1.3-15.7.8-20.3 2.3-5.2 9.3-11.1 15.1-12.9 6.8-2.1 19.6-1.9 27.1.5zm-68.4 1.9c11.1 4.9 17 15.4 16.1 28.2-.7 9-3.9 15.2-10.3 20.1-6.5 4.9-13.8 6.8-26.3 6.8H137v25h-19v-83.1l22.3.3c20.8.3 22.5.4 27.4 2.7zm26.1 139.8.3 6.3H118v-5.8c0-3.2.3-6.2.7-6.5.4-.4 17.3-.6 37.7-.5l37.1.3.3 6.2z"/>
        <path fill="currentColor" d="M137 155.5V168h7.3c14-.1 19.5-3 20.4-11.1.6-5.8-.9-9.4-4.9-11.9-2.7-1.6-5.1-2-13-2H137v12.5z"/>
    </symbol>
    <symbol id="figma" viewBox="0 0 384 512">
        <path fill="currentColor" d="M14 95.8A95.8 95.8 0 0 1 109.8 0h164.36a95.8 95.8 0 0 1 52.55 175.9 95.8 95.8 0 0 1-52.55 175.9h-2.08c-24.8 0-47.4-9.43-64.41-24.9v88.27c0 53.6-44.01 96.83-97.36 96.83C57.54 512 14 469.24 14 416.2a95.7 95.7 0 0 1 43.24-80.1A95.7 95.7 0 0 1 14 256a95.7 95.7 0 0 1 43.24-80.1A95.7 95.7 0 0 1 14 95.8Zm162.29 95.79h-66.5a64.42 64.42 0 0 0-.4 128.83h66.9V191.59ZM207.67 256a64.41 64.41 0 0 0 64.41 64.42h2.08a64.41 64.41 0 1 0 0-128.83h-2.08A64.41 64.41 0 0 0 207.67 256Zm-97.88 95.8h-.4a64.41 64.41 0 0 0-64.01 64.4c0 35.45 29.22 64.42 64.93 64.42 36.28 0 65.98-29.43 65.98-65.45v-63.38h-66.5Zm0-320.42a64.41 64.41 0 1 0 0 128.83h66.5V31.38h-66.5Zm97.88 128.83h66.5a64.41 64.41 0 1 0 0-128.83h-66.5V160.2Z"/>
    </symbol>

    <symbol id="modx" viewBox="0 0 448 512">
        <path fill="currentColor" d="m356 241.8 36.7 23.7V480l-133-83.8L356 241.8zM440 75H226.3l-23 37.8 153.5 96.5L440 75zm-89 142.8L55.2 32v214.5l46 29L351 217.8zM97 294.2 8 437h213.7l125-200.5L97 294.2z"/>
    </symbol>
    <symbol id="wordpress" viewBox="0 0 512 512">
        <path fill="currentColor" d="m61.7 169.4 101.5 278C92.2 413 43.3 340.2 43.3 256c0-30.9 6.6-60.1 18.4-86.6zm337.9 75.9c0-26.3-9.4-44.5-17.5-58.7-10.8-17.5-20.9-32.4-20.9-49.9 0-19.6 14.8-37.8 35.7-37.8.9 0 1.8.1 2.8.2A212.05 212.05 0 0 0 256 43.2c-74.3 0-139.7 38.1-177.8 95.9 5 .2 9.7.3 13.7.3 22.2 0 56.7-2.7 56.7-2.7 11.5-.7 12.8 16.2 1.4 17.5 0 0-11.5 1.3-24.3 2l77.5 230.4L249.8 247l-33.1-90.8c-11.5-.7-22.3-2-22.3-2-11.5-.7-10.1-18.2 1.3-17.5 0 0 35.1 2.7 56 2.7 22.2 0 56.7-2.7 56.7-2.7 11.5-.7 12.8 16.2 1.4 17.5 0 0-11.5 1.3-24.3 2l76.9 228.7 21.2-70.9c9-29.4 16-50.5 16-68.7zm-139.9 29.3-63.8 185.5c19.1 5.6 39.2 8.7 60.1 8.7 24.8 0 48.5-4.3 70.6-12.1-.6-.9-1.1-1.9-1.5-2.9l-65.4-179.2zm183-120.7c.9 6.8 1.4 14 1.4 21.9 0 21.6-4 45.8-16.2 76.2l-65 187.9C426.2 403 468.7 334.5 468.7 256c0-37-9.4-71.8-26-102.1zM504 256c0 136.8-111.3 248-248 248C119.2 504 8 392.7 8 256 8 119.2 119.2 8 256 8c136.7 0 248 111.2 248 248zm-11.4 0c0-130.5-106.2-236.6-236.6-236.6C125.5 19.4 19.4 125.5 19.4 256S125.6 492.6 256 492.6c130.5 0 236.6-106.1 236.6-236.6z"/>
    </symbol>

    <symbol id="js" viewBox="0 0 448 512">
        <path fill="currentColor" d="M0 32v448h448V32H0zm243.8 349.4c0 43.6-25.6 63.5-62.9 63.5-33.7 0-53.2-17.4-63.2-38.5l34.3-20.7c6.6 11.7 12.6 21.6 27.1 21.6 13.8 0 22.6-5.4 22.6-26.5V237.7h42.1v143.7zm99.6 63.5c-39.1 0-64.4-18.6-76.7-43l34.3-19.8c9 14.7 20.8 25.6 41.5 25.6 17.4 0 28.6-8.7 28.6-20.8 0-14.4-11.4-19.5-30.7-28l-10.5-4.5c-30.4-12.9-50.5-29.2-50.5-63.5 0-31.6 24.1-55.6 61.6-55.6 26.8 0 46 9.3 59.8 33.7L368 290c-7.2-12.9-15-18-27.1-18-12.3 0-20.1 7.8-20.1 18 0 12.6 7.8 17.7 25.9 25.6l10.5 4.5c35.8 15.3 55.9 31 55.9 66.2 0 37.8-29.8 58.6-69.7 58.6z"/>
    </symbol>
    <symbol id="jquery" viewBox="0 0 100 94">
        <g fill="currentColor">
            <path d="M25.62 17.37c-5 7.3-4.37 16.82-.57 24.57l.28.56.2.35.1.2.2.36.36.63.2.35.43.68.18.28c.2.3.4.6.62.9l.01.02.1.15.57.75.2.27.52.65.2.24a29.91 29.91 0 0 0 .72.83l.01.02.03.03a22.43 22.43 0 0 0 .73.79l.23.24.59.58.23.23a32.6 32.6 0 0 0 .8.74l.15.13.73.62.3.25.6.47.33.25.92.68.07.05.66.44.28.2 1.04.64.28.16.78.44.42.23.56.28.13.06.22.11.88.42.19.1a31.12 31.12 0 0 0 1.02.43l.25.1.97.36.12.05a32.72 32.72 0 0 0 1.08.35l.26.08c.38.12.73.25 1.1.33 24.15 4.49 31.17-14.77 31.17-14.77-5.9 7.81-16.35 9.87-26.25 7.58-.38-.1-.74-.2-1.1-.32l-.28-.1c-.36-.1-.72-.22-1.07-.34l-.15-.06a33.1 33.1 0 0 1-.93-.35l-.27-.1a29.84 29.84 0 0 1-1.01-.44l-.2-.09-.86-.4-.24-.12a29.2 29.2 0 0 1-.67-.35l-.44-.23a25.41 25.41 0 0 1-.79-.46l-.27-.15a41 41 0 0 1-1.03-.64l-.28-.19-.73-.5-.24-.17-.7-.5-.3-.24-.63-.5-.28-.23-.78-.66a36.8 36.8 0 0 1-.91-.83l-.23-.23-.6-.59-.22-.23a29.61 29.61 0 0 1-.73-.78c0-.02-.02-.03-.03-.04a29.76 29.76 0 0 1-.73-.85l-.2-.23-.53-.67-.19-.24-.6-.83c-5.5-7.64-7.48-18.18-3.09-26.84m11.6-1.12c-3.6 5.3-3.4 12.38-.59 17.97a23.5 23.5 0 0 0 1.6 2.72c.54.79 1.14 1.73 1.86 2.36l.8.86.22.21a23.83 23.83 0 0 0 .83.79l.03.03a24.87 24.87 0 0 0 .98.82l.22.17a23.75 23.75 0 0 0 1 .76.57.57 0 0 0 .04.02l.46.3.21.15a20.46 20.46 0 0 0 .75.47l.1.06.67.38.24.13.47.24.07.03c.32.16.64.32.97.46l.21.1.8.32.33.13a24.88 24.88 0 0 0 .73.25l.33.11c.35.11.7.25 1.05.31C74.13 44.51 78.44 29.9 78.44 29.9c-3.88 5.69-11.4 8.4-19.41 6.28a19.93 19.93 0 0 1-1.06-.3l-.31-.1a21.13 21.13 0 0 1-.74-.26l-.34-.13-.79-.32-.21-.1a18.46 18.46 0 0 1-.98-.46l-.49-.25-.28-.15a18.95 18.95 0 0 1-.61-.35l-.15-.1a24.06 24.06 0 0 1-.75-.46l-.22-.15-.49-.33a25.95 25.95 0 0 1-1-.75l-.23-.18a22.9 22.9 0 0 1-7.61-11.05c-1.4-4.54-1.1-9.63 1.32-13.76m10.06-.36a11.21 11.21 0 0 0-.85 10.68 14.87 14.87 0 0 0 8.95 8.23l.2.06c.22.07.44.15.66.2 10.3 2.02 13.1-5.38 13.83-6.47-2.44 3.58-6.55 4.44-11.6 3.2-.4-.1-.83-.25-1.22-.39a14.76 14.76 0 0 1-1.45-.6 14.94 14.94 0 0 1-2.54-1.59C55.6 16.44 52.8 9.8 55.74 4.38"/>
            <path d="m31.42 74.34-.7 2.47.7-2.47zM35 79.71h-.77.77zm-.2 3.69-4.6.02 4.6-.02zm.97-3.69h-.77.77zm-.55 3.37.8-3.05-.8 3.05zM52.18 69l-1.5 7.02 1.5-7.02zm-3.85 0-1.13 5.24L48.33 69zM51.91 68.68h-3.2a.42.42 0 0 0-.38.32l-2.27 10.5a.42.42 0 0 1-.4.3h-2.25c-2.24 0-1.98-1.54-1.52-3.66l.02-.06.27-1.45.12-.6L43.33 69a.25.25 0 0 0-.26-.32h-3.28a.42.42 0 0 0-.39.31L37.92 76c-.8 3.71-.6 7.25 3.82 7.36h7.06c.18 0 .35-.14.39-.32L52.18 69c.04-.17-.08-.31-.26-.31zm12.75 11.16c.18 0 .28.15.26.32l-.31 1.52m-.31 1.51.3-1.51-.3 1.51zm-.4.32-5.88.03 5.89-.03z"/>
            <path d="M56.11 77.9c0-.17.19-.46.37-.46h-.4c-.2 1.8.03.45.03.45zm2.2 5.64h-.06.06zm6.35-3.7c.18 0 .28.15.26.32l-.36 1.76m-4.74 1.63h-.01.01zm-.78-.01h-.05.05zm-.24 0h-.08.08zm-.23 0h-.07.07zm.43 0h-.2.2zM59.81 83.55h-.77.77zm4.1-.03-4.09.03 4.09-.03zm.38-.33.26-1.27-.26 1.28zm-5.58.35h-.14.16zm-.46 0h-.23.23zm.24 0h-.19.19zm-46.74-5.61.5-2.2-.58 2.51-.06.32.14-.63zm5.94-9.29h-3.51a.43.43 0 0 0-.4.32l-.66 2.93a.25.25 0 0 0 .25.31h3.54c.17 0 .35-.14.39-.31l.64-2.94c.04-.17-.08-.31-.26-.31zm-.77 4.89-1.04 4.76 1.04-4.76zM6.72 89.3l2.9.02-2.9-.02z"/>
            <path d="m12.73 73.53-.5 2.2.5-2.2zm3.94-.32h-3.54a.43.43 0 0 0-.4.32l-.98 4.4-.14.63-.95 4.5a6.77 6.77 0 0 1-.17.61s-.66 1.97-1.77 1.95l-1.1-.02a.43.43 0 0 0-.4.3L6.5 89a.25.25 0 0 0 .25.32l2.9.02c2.77 0 4.23-1.54 5.17-5.96l2.12-9.83c.04-.17-.07-.32-.25-.32zM66.9 83.36c-.18 0-.28-.14-.25-.31l2.66-12.47m1.29 12.46 1.08-5.31-1.08 5.31z"/>
            <path d="M66.7 83.2c-.03-.08-.01-.3.02-.47L68 76.81l-1.33 6.24c-.04.17.07.31.25.31h.32c-.17 0-.51-.07-.53-.16zm3.7.1c-.1.03-.32.06-.5.06h.32a.42.42 0 0 0 .4-.32l.06-.31c-.04.17-.2.52-.29.56zm.75-2.91.47-2.35-.47 2.35zm10.5-8.97.14.6c.04.18-.07.32-.25.32M70.67 82.73l.48-2.34-.48 2.34zM81.5 70.79l.15.62-.15-.62zm-9.88 7.25.13-.63.51-2.38-.57 2.7-.07.3zm-2.26-7.66-.11.52-1.26 5.91 1.33-6.23.04-.2z"/>
            <path d="m81.8 72.02-.15-.6-.22-.95c-.29-1.11-1.13-1.76-2.96-1.76h-8.43a.42.42 0 0 0-.4.31l-.12.62-.2.93-2.59 12.15c-.03.17-.05.38-.02.47s.36.16.53.16h2.67c.18 0 .4-.03.5-.07s.24-.38.28-.56l1.01-5 1.09-5.07a.42.42 0 0 1 .39-.32h8.38c.18 0 .29-.15.25-.32zm10.79-5.47h-3.33a.69.69 0 0 0-.5.27l-5.94 8.7c-.1.14-.22.12-.26-.05l-.43-1.92a.43.43 0 0 0-.4-.32h-3.81c-.18 0-.29.14-.24.31l1.7 6c.05.17.06.45.01.62l-.75 2.9a.24.24 0 0 0 .24.31h3.78c.18 0 .36-.14.4-.31l.76-2.9a1.93 1.93 0 0 1 .27-.57l9.65-12.8c.1-.13.05-.25-.13-.25l-1.01.01zm-30.32 7.5a.39.39 0 0 1-.37.33h-4.84c-.17 0-.26-.11-.23-.25v-.03l.03-.08c.47-1.23 1.4-2.04 3.17-2.04 1.99 0 2.38.98 2.24 2.07zm-1.42-5.58c-6.2 0-7.68 3.77-8.5 7.57-.83 3.88-.76 7.5 5.67 7.5h1.8l4.1-.02a.42.42 0 0 0 .38-.32l.62-3.04c.03-.17-.08-.31-.26-.31h-5.78c-2.3 0-2.98-.61-2.73-2.4h9.24c.15-.01.29-.1.34-.25l.02-.08c1.37-5.17.98-8.65-4.9-8.65zm-29.34 5.56-.1.3-.69 2.48-.7 2.47a.45.45 0 0 1-.4.31h-3.7c-2.8 0-3.48-2.19-2.8-5.42.68-3.3 2.02-5.36 4.77-5.56 3.77-.29 4.52 2.36 3.62 5.42zm2.53 5.37s1.74-4.22 2.13-6.66c.54-3.27-1.1-8-7.41-8-6.28 0-9.01 4.51-10.05 9.44-1.04 4.95.32 9.3 6.57 9.26l9.53-.03a.44.44 0 0 0 .4-.31l.8-3.07a.24.24 0 0 0-.24-.3l-1.53-.02c-.15 0-.24-.1-.22-.23 0-.02 0-.04.02-.07z"/>
            <path d="M65.13 76.57a.21.21 0 1 1-.42 0 .21.21 0 0 1 .42 0z"/>
        </g>
    </symbol>


    <symbol id="biking" viewBox="0 0 640 512">
        <path fill="currentColor" d="M400 96a48 48 0 1 0-48-48 48 48 0 0 0 48 48zM128 256a128 128 0 1 0 128 128 128 128 0 0 0-128-128zm0 208a80 80 0 1 1 80-80 80.09 80.09 0 0 1-80 80zm384-208a128 128 0 1 0 128 128 128 128 0 0 0-128-128zm0 208a80 80 0 1 1 80-80 80.09 80.09 0 0 1-80 80zM401 210.73a24 24 0 0 0 15 5.27h64a24 24 0 0 0 0-48h-55.59L351 109.27a24 24 0 0 0-30.62.51l-104 89.11a32 32 0 0 0 3.06 50.94l76.53 51V416a24 24 0 0 0 48 0V288a24 24 0 0 0-10.69-20l-50.11-33.4 71.29-61.1z"/>
    </symbol>
    <symbol id="campground"  viewBox="0 0 640 512">
        <path fill="currentColor" d="M624 464h-28.53l-245.9-341.21 63.33-87.88a16 16 0 0 0-3.44-22.36L396.58 3.1a16 16 0 0 0-22.37 3.44L320 81.76 265.79 6.54a16 16 0 0 0-22.37-3.44l-12.88 9.45a16 16 0 0 0-3.44 22.36l63.33 87.88L44.53 464H16a16 16 0 0 0-16 16v16a16 16 0 0 0 16 16h608a16 16 0 0 0 16-16v-16a16 16 0 0 0-16-16zM320 163.82 536.33 464h-99.97L320 304 203.64 464h-99.97L320 163.82z"/>
    </symbol>
    <symbol id="book-reader" viewBox="0 0 512 512">
        <path fill="currentColor" d="M459.91 192.02c-.7 0-1.39.02-2.06.05-49.8 2.84-140.51 13-201.84 47.57-61.33-34.57-152.05-44.73-201.84-47.57-.67-.04-1.36-.05-2.06-.05C31.71 192.01 0 206.36 0 242.22v178.05c0 26.69 21.25 48.7 48.34 50.12 34.41 1.81 120.56 9.08 177 37.47a37.98 37.98 0 0 0 17.19 4.14h26.94a38 38 0 0 0 17.19-4.14c56.44-28.39 142.59-35.65 177-37.47 27.09-1.42 48.34-23.44 48.34-50.12V242.22c0-35.86-31.71-50.2-52.09-50.2zM232 458.43c-60.63-25.8-138.17-33.71-181.14-35.97-1.71-.09-2.86-1.21-2.86-2.19l-.46-178.45c.76-.76 3.29-1.74 3.88-1.84 35.86 2.04 125.09 10.18 180.58 41.26v177.19zm232-38.16c0 .98-1.15 2.1-2.87 2.19-42.94 2.26-120.43 10.16-181.13 35.98v-177.2c55.32-30.98 144.17-39.16 179.93-41.22 1.4.13 3.78 1.09 4.07 2.2v178.05zM256 191.99c53.02 0 96-42.98 96-95.99S309.02 0 256 0s-96 42.98-96 95.99 42.98 96 96 96zM256 48c26.47 0 48 21.53 48 48s-21.53 48-48 48-48-21.53-48-48 21.53-48 48-48z"/>
    </symbol>
    <symbol id="games" viewBox="0 0 640 512">
        <path fill="currentColor" d="M432 240a32 32 0 1 0 32 32 32 32 0 0 0-32-32zm-184-24h-48v-48a8 8 0 0 0-8-8h-32a8 8 0 0 0-8 8v48h-48a8 8 0 0 0-8 8v32a8 8 0 0 0 8 8h48v48a8 8 0 0 0 8 8h32a8 8 0 0 0 8-8v-48h48a8 8 0 0 0 8-8v-32a8 8 0 0 0-8-8zm248-40a32 32 0 1 0 32 32 32 32 0 0 0-32-32zM464 64H176a176 176 0 1 0 120.81 304h46.38A176 176 0 1 0 464 64zm0 304c-55.81 0-85.5-32.69-101.69-48h-84.62c-15.6 14.69-45.5 48-101.69 48a128 128 0 0 1 0-256h288a128 128 0 0 1 0 256z"/>
    </symbol>


    <symbol id="user" viewBox="0 0 1800 1800">
        <g fill="currentColor">
        <path d="M886.36 871.67h53.49a18.3 18.3 0 1 0 0-36.59h-35.2v-85.6a18.3 18.3 0 1 0-36.58 0v103.9c0 10.1 8.18 18.29 18.28 18.29zM1023.15 976.57a18.3 18.3 0 0 0-21.49-29.61c-101.74 73.76-199.98 3.22-204.2.11a18.3 18.3 0 0 0-21.82 29.37c.81.6 55.27 40.21 128.1 40.21 36.65 0 77.95-10.01 119.4-40.08zM722.02 669.32c-21.6 0-39.12 24.24-39.12 54.16 0 29.92 17.52 54.17 39.12 54.17 21.6 0 39.12-24.25 39.12-54.17s-17.51-54.16-39.12-54.16zM787.5 653.24a18.3 18.3 0 0 0 21.8-29.39c-29.8-22.17-104.57-50.74-174.36-.13a18.3 18.3 0 0 0 21.47 29.62c65.17-47.25 128.4-2.07 131.09-.1zM1056.35 669.32c-21.61 0-39.12 24.24-39.12 54.16 0 29.92 17.5 54.17 39.12 54.17 21.6 0 39.12-24.25 39.12-54.17s-17.52-54.16-39.12-54.16zM990.86 653.24c2.67-1.94 65.92-47.15 131.1.1a18.27 18.27 0 0 0 25.55-4.07 18.29 18.29 0 0 0-4.08-25.56c-69.81-50.6-144.57-22.03-174.36.14a18.26 18.26 0 0 0-3.76 25.52 18.32 18.32 0 0 0 25.55 3.87z"/>
        <path d="M1044.42 1241.03v-73.48c144.01-55.91 249.03-190.6 261.88-350.87 54.59-8.12 96.6-55.3 96.6-112.1 0-52.98-36.56-97.58-85.78-109.93a396.58 396.58 0 0 0 22.44-73.55c22.42-111.2-3.25-225.03-72.29-320.51-68.47-94.7-171.56-160.04-290.25-183.97a491.89 491.89 0 0 0-96.9-9.72c-101.61 0-200.66 32.7-278.9 92.06-79.95 60.67-134.6 146.72-153.86 242.31-15.83 78.52-7.48 159.77 24.14 234.97l7.21 17.16c-52.04 10.23-91.42 56.19-91.42 111.19 0 57.3 42.74 104.76 98.01 112.27 13.17 163.31 122.01 300.02 270.28 353.86v70.31c-293.22 54.78-503.23 269.92-503.23 520.06v32.01h184.19v-64.02H317.73c13.11-155.45 121.03-292.5 281.22-370.14l163.44 370.14H604.23v-190.45c0-16.83-14.33-30.48-32.02-30.48-17.68 0-32 13.65-32 30.48V1793.1h1007.44v-32.01c0-250.14-210-465.28-503.23-520.06zM930.7 1458.76l-21.87 237.56h-26.05l-21.86-237.56 34.89-28.46 34.89 28.46zm-132.9 12.73 20.83 226.43-84.1-190.46 63.26-35.97zm195.93.97 61.54 35-81.8 185.28 20.26-220.28zm87.54-23.88-121.02-68.82 84.18-46.62v-26.89a681.97 681.97 0 0 1 88.88 24.48l-52.04 117.85zm257.61-744c0 20.8-12.96 38.6-31.23 45.83V658.76a49.36 49.36 0 0 1 31.23 45.82zM510.12 353.92c33.05-163.98 188.66-283 370-283 28.05 0 56.38 2.85 84.25 8.47 102.86 20.73 192 77.1 251.02 158.71 58.45 80.84 80.26 176.85 61.4 270.36-2.41 12-5.5 23.88-9.22 35.54-74.69-38.64-176.44-81.16-283.58-95.82-187.07-25.6-203.6-35.86-221.68-88.24l-15.62-45.24-35.85 31.7c-1.07.95-97.29 85.93-194.55 164.34-14.47-51.35-16.65-104.84-6.17-156.82zm-58.8 350.67a49.35 49.35 0 0 1 32.62-46.35v92.69a49.35 49.35 0 0 1-32.63-46.34zm96.65 78.88V567.4c67.09-53.78 134.85-111.77 173.3-145.11 36.73 56.68 103.2 68.68 254.05 89.32 104.31 14.27 205.43 59.29 268.3 92.13V783.46c0 191.79-156.04 347.83-347.82 347.83-191.8 0-347.83-156.04-347.83-347.82zM895.8 1195.3c29 0 57.29-3.03 84.6-8.75v108.84l-80.55 44.62-80.23-44.59V1188.22c24.7 4.64 50.16 7.1 76.18 7.1zm-140.2 110.94v26.86l78.9 43.84-125.97 71.63-50.61-114.62a679.05 679.05 0 0 1 97.67-27.7zm494 422.83v-190.45c0-16.83-14.34-30.48-32.02-30.48-17.69 0-32.01 13.65-32.01 30.48v190.45H1027.4l165.24-374.22c164.84 76.87 276.3 216.04 289.64 374.22h-232.7z"/>
        </g>
    </symbol>
    <symbol id="code" viewBox="0 0 1800 1800">
      <g fill="currentColor">
        <path d="M1718.2 2.03H81.58C37.6 2.03 1.82 37.8 1.82 81.77V1718.4c0 43.98 35.78 79.75 79.76 79.75H1718.2c43.97 0 79.74-35.77 79.74-79.75V81.77c0-43.97-35.77-79.74-79.74-79.74zm16.67 1716.37a16.7 16.7 0 0 1-16.67 16.68H81.58a16.7 16.7 0 0 1-16.68-16.68V340.56h1669.97V1718.4zm0-1440.91H64.9V81.77A16.7 16.7 0 0 1 81.58 65.1H1718.2a16.7 16.7 0 0 1 16.67 16.67v195.72z"/>
        <circle cx="201.36" cy="168.24" r="50.68"/>
        <circle cx="361.29" cy="168.24" r="50.68"/>
        <circle cx="521.22" cy="168.24" r="50.68"/>
        <path d="M691.02 1349.1a31.54 31.54 0 0 0 42.64-13.07l362.28-682.47a31.54 31.54 0 0 0-55.7-29.57l-362.3 682.48a31.53 31.53 0 0 0 13.08 42.63zM281.38 967.03l.08.88c.18 2.38.65 4.76 1.4 7.11.1.33.18.66.3.98.13.4.31.78.47 1.16.23.6.46 1.19.73 1.77l.07.15c.06.13.14.23.2.36a31.02 31.02 0 0 0 2.35 3.99 31.08 31.08 0 0 0 2.42 3.1l.5.52a30.62 30.62 0 0 0 3.27 3.02c.86.68 1.75 1.33 2.7 1.93.17.12.33.25.51.36.93.57 1.9 1.09 2.9 1.57L614.6 1144.7a31.53 31.53 0 0 0 42.05-14.85 31.53 31.53 0 0 0-14.85-42.05L386 965.48 641.8 843.16a31.53 31.53 0 0 0-27.2-56.9l-315 150.62-.03.01-.3.14-.76.41c-.63.33-1.26.65-1.87 1.02-.36.21-.69.45-1.04.68-.51.33-1.03.67-1.53 1.04-.37.27-.72.57-1.08.86-.44.36-.88.71-1.3 1.1-.36.33-.7.67-1.04 1.01-.39.38-.77.76-1.14 1.17-.35.38-.66.78-.98 1.17-.33.4-.66.79-.97 1.2-.34.46-.64.93-.95 1.4-.25.4-.53.77-.77 1.18-.33.55-.62 1.11-.9 1.68-.18.32-.36.6-.51.93l-.07.15c-.27.58-.5 1.18-.74 1.77-.15.39-.33.77-.47 1.16-.11.32-.19.66-.3.99a31.17 31.17 0 0 0-1.39 7.1c-.02.3-.07.59-.08.88-.03.52 0 1.04 0 1.55 0 .52-.03 1.03 0 1.55zM1117.25 1129.86a31.53 31.53 0 0 0 42.05 14.84l315.32-150.77c1-.48 1.96-1 2.89-1.57.18-.11.35-.24.52-.36.94-.6 1.84-1.25 2.7-1.93l.9-.77c.83-.71 1.62-1.47 2.36-2.25l.5-.52c.88-.98 1.68-2.02 2.43-3.1l.54-.83a30.95 30.95 0 0 0 1.8-3.16c.07-.13.15-.23.2-.36l.07-.15c.27-.58.5-1.18.74-1.77.15-.39.33-.77.47-1.16.12-.32.2-.66.3-.98.75-2.35 1.21-4.73 1.4-7.11l.08-.88c.02-.52 0-1.03 0-1.55s.02-1.04 0-1.56l-.09-.87a31.36 31.36 0 0 0-1.39-7.1c-.1-.34-.18-.67-.3-1-.14-.38-.32-.77-.47-1.15-.24-.6-.47-1.2-.74-1.77-.03-.05-.04-.1-.06-.16-.16-.32-.34-.61-.51-.92-.3-.57-.58-1.14-.9-1.69-.25-.4-.53-.8-.79-1.2-.3-.45-.6-.92-.93-1.36-.32-.43-.66-.83-1-1.24-.3-.38-.61-.77-.95-1.13-.38-.43-.78-.82-1.19-1.23l-.97-.95c-.46-.41-.94-.8-1.42-1.18-.31-.26-.62-.53-.95-.77-.56-.42-1.14-.8-1.72-1.17-.28-.18-.56-.38-.84-.55-.72-.43-1.45-.82-2.2-1.2-.17-.07-.31-.17-.48-.25l-.19-.09-.2-.1-314.93-150.59a31.54 31.54 0 0 0-27.2 56.9l255.8 122.33-255.8 122.32a31.54 31.54 0 0 0-14.85 42.06z"/>
      </g>
    </symbol>
    <symbol id="experience" viewBox="0 0 1800 1800">
        <g fill="currentColor">
            <path d="M1766.47 171.32a31.56 31.56 0 0 0 31.56-31.56V31.56A31.56 31.56 0 0 0 1766.47 0H33.53A31.56 31.56 0 0 0 1.97 31.56v108.2a31.56 31.56 0 0 0 31.56 31.56h109.05v924.24H33.53a31.56 31.56 0 0 0-31.56 31.56v108.2a31.56 31.56 0 0 0 31.56 31.56h786.24L322.1 1745.7a31.56 31.56 0 1 0 43.76 45.48l472.55-454.65v431.91a31.56 31.56 0 1 0 63.12 0v-431.91l472.55 454.65c6.12 5.9 14 8.82 21.88 8.82a31.56 31.56 0 0 0 21.89-54.3l-497.68-478.82h846.3a31.56 31.56 0 0 0 31.56-31.56v-108.2a31.56 31.56 0 0 0-31.56-31.56h-109.05V171.32h109.05zM65.1 63.12H1734.9v45.08H65.1V63.12zM1734.9 1203.76H65.1v-45.08H1734.9v45.08zm-140.6-108.2H205.7V171.32h1388.6v924.24z"/>
            <path d="M502.24 852.75c8.08 0 16.16-3.08 22.32-9.24L696.08 672l197.71 197.72a31.48 31.48 0 0 0 22.32 9.24c8.07 0 16.15-3.09 22.32-9.24l269.9-269.9v181a31.56 31.56 0 1 0 63.13 0l-.01-260.29c0-8.73-3.55-16.63-9.28-22.34a31.46 31.46 0 0 0-22.34-9.28H979.54a31.56 31.56 0 0 0 0 63.11l187.3.01-250.73 250.73-197.72-197.71a31.57 31.57 0 0 0-44.63 0c-.02 0-.03.03-.04.04l-193.8 193.78a31.56 31.56 0 0 0 22.32 53.88z"/>
        </g>
    </symbol>
    <symbol id="education" viewBox="0 0 1800 1800">
      <g fill="currentColor">
        <path d="M1782.24 564.72 917.14 6.08a31.6 31.6 0 0 0-34.28 0L17.76 564.72a31.6 31.6 0 0 0 0 53.08L316.8 810.9c-.31 1.8-.5 3.62-.5 5.5v365.48c0 70.58 64.63 134.24 181.98 179.27 107.81 41.35 250.48 64.13 401.73 64.13s293.92-22.78 401.73-64.13c117.36-45.03 181.99-108.69 181.99-179.27V816.4c0-1.88-.2-3.7-.51-5.5l105.36-68.03v585.3c-32.95 12.72-56.42 44.65-56.42 82.04 0 36.23 22.02 67.4 53.36 80.88l-61.27 269.29a31.6 31.6 0 0 0 30.8 38.6h130.33a31.6 31.6 0 0 0 30.17-41l-60.73-266.89c31.35-13.48 53.36-44.65 53.36-80.88 0-37.39-23.47-69.31-56.42-82.05v-626.1l130.49-84.26a31.6 31.6 0 0 0 0-53.08zm-162.08 870.31a24.85 24.85 0 0 1-24.82-24.82c0-13.69 11.13-24.83 24.82-24.83s24.82 11.14 24.82 24.83a24.85 24.85 0 0 1-24.82 24.82zm-25.53 300.76 25.53-112.18 25.53 112.18h-51.06zm-174.1-553.91c0 85.24-213.77 180.22-520.53 180.22-306.75 0-520.53-94.98-520.53-180.22v-330.5l503.39 325.07a31.55 31.55 0 0 0 34.28 0l503.39-325.07v330.5zM900 1112.3 93.14 591.26 900 70.22l806.86 521.04L900 1112.3z"/>
        <path d="M787.93 591.26c0 61.8 50.28 112.07 112.07 112.07 61.8 0 112.07-50.27 112.07-112.07 0-61.8-50.28-112.06-112.07-112.06-61.8 0-112.07 50.27-112.07 112.06zm160.95 0A48.93 48.93 0 0 1 900 640.14a48.93 48.93 0 0 1-48.88-48.88A48.93 48.93 0 0 1 900 542.38a48.93 48.93 0 0 1 48.88 48.88z"/>
      </g>
    </symbol>
</svg>